<svg xmlns="http://www.w3.org/2000/svg" width="411" height="234" viewBox="0 0 411.0 234.0" font-family="'Latin Modern Math','CMU Serif','STIX Two Math','Cambria Math','Times New Roman',serif">
<rect width="100%" height="100%" fill="white"/>
<text x="52.0" y="46.0" font-size="22" text-anchor="end" dominant-baseline="central">|<tspan font-style="italic">q</tspan><tspan font-size="14" dy="5">1</tspan><tspan dy="-5">⟩</tspan></text>
<line x1="58.0" y1="46.0" x2="395.0" y2="46.0" stroke="black" stroke-width="1.3"/>
<text x="52.0" y="96.0" font-size="22" text-anchor="end" dominant-baseline="central">|<tspan font-style="italic">q</tspan><tspan font-size="14" dy="5">2</tspan><tspan dy="-5">⟩</tspan></text>
<line x1="58.0" y1="96.0" x2="395.0" y2="96.0" stroke="black" stroke-width="1.3"/>
<text x="52.0" y="146.0" font-size="22" text-anchor="end" dominant-baseline="central">|<tspan font-style="italic">q</tspan><tspan font-size="14" dy="5">3</tspan><tspan dy="-5">⟩</tspan></text>
<line x1="58.0" y1="146.0" x2="395.0" y2="146.0" stroke="black" stroke-width="1.3"/>
<text x="52.0" y="196.0" font-size="22" text-anchor="end" dominant-baseline="central">|<tspan font-style="italic">q</tspan><tspan font-size="14" dy="5">4</tspan><tspan dy="-5">⟩</tspan></text>
<line x1="58.0" y1="196.0" x2="395.0" y2="196.0" stroke="black" stroke-width="1.3"/>
<path d="M108.0,31.0 h10.5 a4.5,4.5 0 0 1 4.5,4.5 v21.0 a4.5,4.5 0 0 1 -4.5,4.5 h-10.5 z" fill="#E3FFA1" stroke="black" stroke-width="1.1"/>
<text x="115.5" y="44.0" font-size="9.5" text-anchor="middle">π</text><line x1="111.0" y1="46.0" x2="120.0" y2="46.0" stroke="black" stroke-width="0.7"/><text x="115.5" y="54.5" font-size="9.5" text-anchor="middle">8</text>
<rect x="70.0" y="28.0" width="38" height="36.0" fill="#E3FFA1" stroke="black" stroke-width="1.3"/>
<text x="89.0" y="46.0" font-size="26" text-anchor="middle" dominant-baseline="central" font-style="italic">Z</text>
<path d="M108.0,181.0 h10.5 a4.5,4.5 0 0 1 4.5,4.5 v21.0 a4.5,4.5 0 0 1 -4.5,4.5 h-10.5 z" fill="#E3FFA1" stroke="black" stroke-width="1.1"/>
<path d="M108.0,181.0 h10.5 a4.5,4.5 0 0 1 4.5,4.5 v3.5 h-15 z" fill="white" stroke="black" stroke-width="1.1"/>
<line x1="112.5" y1="185.0" x2="118.5" y2="185.0" stroke="black" stroke-width="1.4"/>
<text x="115.5" y="198.0" font-size="8.5" text-anchor="middle">π</text><line x1="111.0" y1="200.0" x2="120.0" y2="200.0" stroke="black" stroke-width="0.7"/><text x="115.5" y="207.5" font-size="8.5" text-anchor="middle">8</text>
<rect x="70.0" y="178.0" width="38" height="36.0" fill="#E3FFA1" stroke="black" stroke-width="1.3"/>
<text x="89.0" y="196.0" font-size="26" text-anchor="middle" dominant-baseline="central" font-style="italic">Y</text>
<path d="M173.0,106.0 h10.5 a4.5,4.5 0 0 1 4.5,4.5 v21.0 a4.5,4.5 0 0 1 -4.5,4.5 h-10.5 z" fill="#E3FFA1" stroke="black" stroke-width="1.1"/>
<path d="M173.0,106.0 h10.5 a4.5,4.5 0 0 1 4.5,4.5 v3.5 h-15 z" fill="white" stroke="black" stroke-width="1.1"/>
<line x1="177.5" y1="110.0" x2="183.5" y2="110.0" stroke="black" stroke-width="1.4"/>
<text x="180.5" y="123.0" font-size="8.5" text-anchor="middle">π</text><line x1="176.0" y1="125.0" x2="185.0" y2="125.0" stroke="black" stroke-width="0.7"/><text x="180.5" y="132.5" font-size="8.5" text-anchor="middle">8</text>
<rect x="135.0" y="28.0" width="38" height="186.0" fill="#E3FFA1" stroke="black" stroke-width="1.3"/>
<text x="154.0" y="46.0" font-size="26" text-anchor="middle" dominant-baseline="central" font-style="italic">Z</text>
<text x="154.0" y="96.0" font-size="26" text-anchor="middle" dominant-baseline="central" font-style="italic">Z</text>
<text x="154.0" y="146.0" font-size="26" text-anchor="middle" dominant-baseline="central" font-style="italic">Z</text>
<text x="154.0" y="196.0" font-size="26" text-anchor="middle" dominant-baseline="central" font-style="italic">Y</text>
<path d="M108.0,106.0 h10.5 a4.5,4.5 0 0 1 4.5,4.5 v21.0 a4.5,4.5 0 0 1 -4.5,4.5 h-10.5 z" fill="#E3FFA1" stroke="black" stroke-width="1.1"/>
<text x="115.5" y="119.0" font-size="9.5" text-anchor="middle">π</text><line x1="111.0" y1="121.0" x2="120.0" y2="121.0" stroke="black" stroke-width="0.7"/><text x="115.5" y="129.5" font-size="9.5" text-anchor="middle">8</text>
<rect x="70.0" y="78.0" width="38" height="86.0" fill="#E3FFA1" stroke="black" stroke-width="1.3"/>
<text x="89.0" y="96.0" font-size="26" text-anchor="middle" dominant-baseline="central" font-style="italic">X</text>
<text x="89.0" y="146.0" font-size="26" text-anchor="middle" dominant-baseline="central" font-style="italic">Y</text>
<path d="M238.0,106.0 h8.0 a7,7 0 0 1 7,7 v16.0 a7,7 0 0 1 -7,7 h-8.0 z" fill="#70B3F5" stroke="black" stroke-width="1.1"/>
<path d="M242.0,114.0 a8,8 0 0 1 0,14" fill="none" stroke="black" stroke-width="1.2"/><line x1="242.0" y1="119.5" x2="251.5" y2="125.0" stroke="black" stroke-width="1.2"/>
<rect x="200.0" y="28.0" width="38" height="186.0" fill="#70B3F5" stroke="black" stroke-width="1.3"/>
<text x="219.0" y="46.0" font-size="26" text-anchor="middle" dominant-baseline="central" font-style="italic">Y</text>
<text x="219.0" y="96.0" font-size="26" text-anchor="middle" dominant-baseline="central" font-style="italic">Z</text>
<text x="219.0" y="146.0" font-size="26" text-anchor="middle" dominant-baseline="central" font-style="italic">Z</text>
<text x="219.0" y="196.0" font-size="26" text-anchor="middle" dominant-baseline="central" font-style="italic">Y</text>
<path d="M303.0,56.0 h8.0 a7,7 0 0 1 7,7 v16.0 a7,7 0 0 1 -7,7 h-8.0 z" fill="#70B3F5" stroke="black" stroke-width="1.1"/>
<path d="M307.0,64.0 a8,8 0 0 1 0,14" fill="none" stroke="black" stroke-width="1.2"/><line x1="307.0" y1="69.5" x2="316.5" y2="75.0" stroke="black" stroke-width="1.2"/>
<rect x="265.0" y="28.0" width="38" height="86.0" fill="#70B3F5" stroke="black" stroke-width="1.3"/>
<text x="284.0" y="46.0" font-size="26" text-anchor="middle" dominant-baseline="central" font-style="italic">X</text>
<text x="284.0" y="96.0" font-size="26" text-anchor="middle" dominant-baseline="central" font-style="italic">X</text>
<path d="M303.0,131.0 h8.0 a7,7 0 0 1 7,7 v16.0 a7,7 0 0 1 -7,7 h-8.0 z" fill="#70B3F5" stroke="black" stroke-width="1.1"/>
<path d="M303.0,131.0 h8.0 a7,7 0 0 1 7,7 v1.0 h-15 z" fill="white" stroke="black" stroke-width="1.1"/>
<line x1="307.5" y1="135.0" x2="313.5" y2="135.0" stroke="black" stroke-width="1.4"/>
<path d="M307.0,143.0 a8,8 0 0 1 0,14" fill="none" stroke="black" stroke-width="1.2"/><line x1="307.0" y1="148.5" x2="316.5" y2="154.0" stroke="black" stroke-width="1.2"/>
<rect x="265.0" y="128.0" width="38" height="36.0" fill="#70B3F5" stroke="black" stroke-width="1.3"/>
<text x="284.0" y="146.0" font-size="26" text-anchor="middle" dominant-baseline="central" font-style="italic">Z</text>
<path d="M368.0,106.0 h8.0 a7,7 0 0 1 7,7 v16.0 a7,7 0 0 1 -7,7 h-8.0 z" fill="#70B3F5" stroke="black" stroke-width="1.1"/>
<path d="M372.0,114.0 a8,8 0 0 1 0,14" fill="none" stroke="black" stroke-width="1.2"/><line x1="372.0" y1="119.5" x2="381.5" y2="125.0" stroke="black" stroke-width="1.2"/>
<rect x="330.0" y="28.0" width="38" height="186.0" fill="#70B3F5" stroke="black" stroke-width="1.3"/>
<text x="349.0" y="46.0" font-size="26" text-anchor="middle" dominant-baseline="central" font-style="italic">X</text>
<text x="349.0" y="96.0" font-size="26" text-anchor="middle" dominant-baseline="central">𝟙</text>
<text x="349.0" y="146.0" font-size="26" text-anchor="middle" dominant-baseline="central">𝟙</text>
<text x="349.0" y="196.0" font-size="26" text-anchor="middle" dominant-baseline="central" font-style="italic">X</text>
</svg>
